<svg width="908" height="219" viewBox="0 0 908 219" fill="none" xmlns="http://www.w3.org/2000/svg">
<rect width="908" height="219" fill="#110728"/>
<path d="M818.977 54.0547L790.896 100.273L762.323 54.0547H727.318L775.607 129.318V164.483H805.711V129.318L854 54.0547H818.977Z" fill="white"/>
<path d="M637.571 129.664L605.828 54.0547H572.754L621.608 164.483H653.57L701.896 54.0547H669.187L637.571 129.664Z" fill="white"/>
<path d="M504.051 115.132C504.051 121.998 502.757 127.151 500.225 130.429C497.619 133.798 494.193 136.038 489.747 137.295C484.79 138.697 479.068 139.389 472.727 139.389C466.386 139.389 460.281 138.679 455.215 137.276C450.678 136.02 447.234 133.798 444.701 130.447C442.205 127.151 440.929 121.998 440.929 115.114V54.0547H410.972V117.336C410.972 124.547 412.047 131.012 414.179 136.512C416.329 142.102 419.39 146.891 423.272 150.77C427.098 154.595 431.69 157.727 436.92 160.076C442.004 162.37 447.69 164.046 453.812 165.047C459.771 166.031 466.131 166.522 472.727 166.522C479.324 166.522 485.301 166.031 491.113 165.047C497.072 164.046 502.666 162.37 507.75 160.094C512.962 157.745 517.59 154.631 521.508 150.825C525.517 146.928 528.651 142.12 530.82 136.512C532.952 130.994 534.027 124.547 534.027 117.336V54.0547H504.069V115.151L504.051 115.132Z" fill="white"/>
<path d="M318.282 135.332C317.772 135.568 317.244 135.805 316.715 136.005C310.957 138.282 304.124 139.447 296.379 139.447C288.635 139.447 281.838 138.282 275.934 135.987C270.248 133.784 265.948 130.579 262.796 126.154C259.716 121.856 258.167 116.211 258.167 109.382C258.167 102.553 259.698 97.0533 262.704 92.7738L233.458 83.1405C229.959 87.9116 227.736 97.4721 227.736 109.382C227.736 121.291 230.542 131.507 236.063 140.048C241.603 148.589 249.639 155.254 259.989 159.825C270.084 164.286 282.33 166.563 296.397 166.563C310.465 166.563 322.838 164.304 332.879 159.825C340.477 156.438 346.837 151.921 351.884 146.331L318.301 135.332H318.282Z" fill="white"/>
<path d="M316.391 82.63C321.931 84.8699 326.14 88.1113 329.256 92.5365C332.299 96.8523 333.83 102.498 333.83 109.345C333.83 111.748 333.629 114.007 333.247 116.101L362.658 125.734C364.024 120.653 364.717 115.172 364.717 109.326C364.717 97.4169 361.911 87.0551 356.389 78.5144C350.85 69.9737 342.832 63.3087 332.554 58.7379C322.514 54.2763 310.232 52 296.073 52H210.173L294.251 79.1154C301.977 79.1154 310.633 80.299 316.373 82.6118L316.391 82.63Z" fill="#FCCD00"/>
<path d="M174.231 144.196C170.295 135.546 164.646 131.613 162.332 130.302C174.96 123.418 183.524 110.034 183.524 94.6458C183.524 72.2287 165.338 54.0547 142.907 54.0547H54V164.483H83.9575V135.237H123.737C137.768 135.292 142.05 145.945 145.549 153.429C149.066 160.95 152.51 164.465 152.51 164.465H186.148C179.843 156.234 178.586 153.775 174.231 144.178V144.196ZM83.9575 109.524V81.0062H139.317C147.207 81.0062 153.585 87.398 153.585 95.2649C153.585 103.132 147.189 109.524 139.317 109.524H83.9575Z" fill="white"/>
</svg>
