<svg width="340" height="340" viewBox="0 0 340 340" fill="none" xmlns="http://www.w3.org/2000/svg">
<rect width="340" height="340" rx="80" fill="#110728"/>
<path d="M202.162 206.453C201.442 206.787 200.696 207.122 199.951 207.404C191.824 210.619 182.18 212.265 171.251 212.265C160.321 212.265 150.729 210.619 142.396 207.379C134.373 204.267 128.303 199.741 123.854 193.492C119.508 187.422 117.322 179.45 117.322 169.806C117.322 160.162 119.482 152.396 123.726 146.352L82.4501 132.748C77.5125 139.486 74.375 152.987 74.375 169.806C74.375 186.625 78.3354 201.052 86.1276 213.114C93.9456 225.175 105.287 234.587 119.894 241.042C134.141 247.343 151.423 250.558 171.276 250.558C191.13 250.558 208.592 247.369 222.762 241.042C233.486 236.259 242.461 229.881 249.584 221.986L202.188 206.453H202.162Z" fill="white"/>
<path d="M199.904 132.079C207.722 135.243 213.662 139.82 218.06 146.069C222.355 152.164 224.515 160.137 224.515 169.806C224.515 173.201 224.232 176.39 223.692 179.347L265.199 192.951C267.128 185.776 268.105 178.036 268.105 169.78C268.105 152.962 264.145 138.329 256.353 126.267C248.535 114.206 237.219 104.794 222.715 98.3388C208.545 92.0381 191.212 88.8235 171.23 88.8235H50L168.658 127.116C179.562 127.116 191.777 128.788 199.878 132.054L199.904 132.079Z" fill="#FCCD00"/>
</svg>
