<svg width="100" height="100" viewBox="0 0 100 100" fill="none" xmlns="http://www.w3.org/2000/svg">
  <rect width="100" height="100" rx="20" fill="black"/>
  <path d="M50 20C33.4315 20 20 33.4315 20 50C20 66.5685 33.4315 80 50 80C66.5685 80 80 66.5685 80 50C80 33.4315 66.5685 20 50 20ZM50 72C37.8497 72 28 62.1503 28 50C28 37.8497 37.8497 28 50 28C62.1503 28 72 37.8497 72 50C72 62.1503 62.1503 72 50 72Z" fill="white"/>
  <path d="M50 35C41.7157 35 35 41.7157 35 50C35 58.2843 41.7157 65 50 65C58.2843 65 65 58.2843 65 50C65 41.7157 58.2843 35 50 35ZM50 58C45.5817 58 42 54.4183 42 50C42 45.5817 45.5817 42 50 42C54.4183 42 58 45.5817 58 50C58 54.4183 54.4183 58 50 58Z" fill="#FF3B30"/>
</svg>
